<svg xmlns="http://www.w3.org/2000/svg" width="1600" height="900" viewBox="0 0 1600 900">
  <defs>
    <radialGradient id="bg" cx="0.5" cy="0.34" r="0.9">
      <stop offset="0" stop-color="#6E0F05"/>
      <stop offset="0.4" stop-color="#4A0A02"/>
      <stop offset="0.72" stop-color="#2A0300"/>
      <stop offset="1" stop-color="#150000"/>
    </radialGradient>
    <radialGradient id="topglow" cx="0.5" cy="0.06" r="0.5">
      <stop offset="0" stop-color="#FB2E0A" stop-opacity="0.34"/>
      <stop offset="1" stop-color="#FB2E0A" stop-opacity="0"/>
    </radialGradient>
    <linearGradient id="gold" x1="0" y1="0" x2="1" y2="1">
      <stop offset="0" stop-color="#FFF2DC"/>
      <stop offset="0.5" stop-color="#FFD79E"/>
      <stop offset="1" stop-color="#FBAD56"/>
    </linearGradient>
    <linearGradient id="goldrule" x1="0" y1="0" x2="1" y2="0">
      <stop offset="0" stop-color="#FBAD56" stop-opacity="0"/>
      <stop offset="0.5" stop-color="#FBAD56"/>
      <stop offset="1" stop-color="#FBAD56" stop-opacity="0"/>
    </linearGradient>
    <linearGradient id="chiefcard" x1="0" y1="0" x2="0" y2="1">
      <stop offset="0" stop-color="#FFFFFF" stop-opacity="0.14"/>
      <stop offset="1" stop-color="#FFFFFF" stop-opacity="0.05"/>
    </linearGradient>
  </defs>

  <rect width="1600" height="900" fill="url(#bg)"/>
  <rect width="1600" height="900" fill="url(#topglow)"/>

  <!-- cabecalho -->
  <text x="800" y="62" text-anchor="middle" font-family="Avenir Next, Helvetica Neue, sans-serif" font-size="22" font-weight="600" letter-spacing="6" fill="#FFC9B3">HIERARQUIA DE COMANDO</text>
  <rect x="700" y="80" width="200" height="4" rx="2" fill="url(#goldrule)"/>

  <!-- ============ CONECTORES (desenhados antes dos cards) ============ -->
  <g fill="none" stroke-linecap="round">
    <!-- Goldratt -> Dener -->
    <path d="M800 196 L800 258" stroke="#FBAD56" stroke-opacity="0.55" stroke-width="2.5"/>
    <!-- Dener -> Baziotti / master -->
    <path d="M800 348 C800 392, 486 388, 486 430" stroke="#FFFFFF" stroke-opacity="0.28" stroke-width="2"/>
    <path d="M800 348 C800 392, 1114 388, 1114 430" stroke="#FFFFFF" stroke-opacity="0.28" stroke-width="2"/>
    <!-- Baziotti/master -> ponto de convergencia (800,600) -->
    <path d="M486 514 C486 560, 800 560, 800 600" stroke="#FBAD56" stroke-opacity="0.4" stroke-width="2"/>
    <path d="M1114 514 C1114 560, 800 560, 800 600" stroke="#FFFFFF" stroke-opacity="0.28" stroke-width="2"/>
    <!-- barramento de distribuicao -->
    <path d="M800 600 L800 632" stroke="#FFFFFF" stroke-opacity="0.28" stroke-width="2"/>
    <path d="M164 632 L1436 632" stroke="#FFFFFF" stroke-opacity="0.20" stroke-width="2"/>
    <!-- quedas do barramento para cada fluxo -->
    <path d="M164 632 L164 686" stroke="#FFFFFF" stroke-opacity="0.24" stroke-width="2"/>
    <path d="M376 632 L376 686" stroke="#FFFFFF" stroke-opacity="0.24" stroke-width="2"/>
    <path d="M588 632 L588 686" stroke="#FFFFFF" stroke-opacity="0.24" stroke-width="2"/>
    <path d="M800 632 L800 686" stroke="#FFFFFF" stroke-opacity="0.24" stroke-width="2"/>
    <path d="M1012 632 L1012 686" stroke="#FFFFFF" stroke-opacity="0.24" stroke-width="2"/>
    <path d="M1224 632 L1224 686" stroke="#FFFFFF" stroke-opacity="0.24" stroke-width="2"/>
    <path d="M1436 632 L1436 686" stroke="#FBAD56" stroke-opacity="0.4" stroke-width="2"/>
  </g>

  <!-- ============ TIER 0: GOLDRATT (Master Advisor) ============ -->
  <g>
    <rect x="580" y="112" width="440" height="84" rx="22" fill="#FFFFFF" fill-opacity="0.06" stroke="#FBAD56" stroke-opacity="0.55" stroke-width="1.5"/>
    <rect x="580" y="112" width="6" height="84" rx="3" fill="url(#gold)"/>
    <text x="800" y="150" text-anchor="middle" font-family="Avenir Next, Helvetica Neue, sans-serif" font-size="30" font-weight="800" fill="#FFFFFF">Goldratt</text>
    <text x="800" y="178" text-anchor="middle" font-family="Avenir Next, Helvetica Neue, sans-serif" font-size="18" font-weight="500" fill="#FFD79E">Master Advisor · Teoria das Restrições</text>
  </g>

  <!-- ============ TIER 0: DENER (Chief) ============ -->
  <g>
    <rect x="576" y="260" width="448" height="88" rx="22" fill="url(#chiefcard)" stroke="#FFFFFF" stroke-opacity="0.28" stroke-width="1.5"/>
    <rect x="576" y="260" width="6" height="88" rx="3" fill="#E50914"/>
    <text x="800" y="300" text-anchor="middle" font-family="Avenir Next, Helvetica Neue, sans-serif" font-size="32" font-weight="800" fill="#FFFFFF">Dener Lippert</text>
    <text x="800" y="329" text-anchor="middle" font-family="Avenir Next, Helvetica Neue, sans-serif" font-size="18" font-weight="500" fill="#FFC9B3">Chief · Cientista do Marketing</text>
  </g>

  <!-- ============ TIER 0/1: BAZIOTTI + MASTER ============ -->
  <g>
    <rect x="306" y="430" width="360" height="84" rx="20" fill="#FFFFFF" fill-opacity="0.06" stroke="#FFFFFF" stroke-opacity="0.18" stroke-width="1.5"/>
    <rect x="306" y="430" width="6" height="84" rx="3" fill="url(#gold)"/>
    <text x="486" y="468" text-anchor="middle" font-family="Avenir Next, Helvetica Neue, sans-serif" font-size="26" font-weight="800" fill="#FFFFFF">Baziotti</text>
    <text x="486" y="494" text-anchor="middle" font-family="Avenir Next, Helvetica Neue, sans-serif" font-size="16" font-weight="500" fill="#FFD79E">Brand Chief · autoridade visual</text>
  </g>
  <g>
    <rect x="900" y="430" width="428" height="84" rx="20" fill="#FFFFFF" fill-opacity="0.06" stroke="#FFFFFF" stroke-opacity="0.18" stroke-width="1.5"/>
    <rect x="900" y="430" width="6" height="84" rx="3" fill="#E50914"/>
    <text x="1114" y="468" text-anchor="middle" font-family="Avenir Next, Helvetica Neue, sans-serif" font-size="24" font-weight="800" fill="#FFFFFF">fabrica-de-receita-master</text>
    <text x="1114" y="494" text-anchor="middle" font-family="Avenir Next, Helvetica Neue, sans-serif" font-size="16" font-weight="500" fill="#FFC9B3">Sub-Orchestrator</text>
  </g>

  <!-- ============ 7 FLUXOS ESTRATÉGICOS ============ -->
  <!-- reutilizavel: cada card 196x150, centros 164,376,588,800,1012,1224,1436 -->
  <g font-family="Avenir Next, Helvetica Neue, sans-serif" text-anchor="middle">
    <!-- Diagnostico -->
    <rect x="66" y="686" width="196" height="150" rx="18" fill="#FFFFFF" fill-opacity="0.05" stroke="#FFFFFF" stroke-opacity="0.15" stroke-width="1.3"/>
    <circle cx="164" cy="720" r="5" fill="#FBAD56"/>
    <text x="164" y="762" font-size="21" font-weight="700" fill="#FFFFFF">Diagnóstico</text>
    <text x="164" y="792" font-size="15" font-weight="500" fill="#F0B9A6">identifica a trava</text>
    <!-- Aquisicao -->
    <rect x="278" y="686" width="196" height="150" rx="18" fill="#FFFFFF" fill-opacity="0.05" stroke="#FFFFFF" stroke-opacity="0.15" stroke-width="1.3"/>
    <circle cx="376" cy="720" r="5" fill="#FF8A3C"/>
    <text x="376" y="762" font-size="21" font-weight="700" fill="#FFFFFF">Aquisição</text>
    <text x="376" y="792" font-size="15" font-weight="500" fill="#F0B9A6">Pilar Tráfego</text>
    <!-- Engajamento e Conversao -->
    <rect x="490" y="686" width="196" height="150" rx="18" fill="#FFFFFF" fill-opacity="0.05" stroke="#FFFFFF" stroke-opacity="0.15" stroke-width="1.3"/>
    <circle cx="588" cy="720" r="5" fill="#FF6200"/>
    <text x="588" y="758" font-size="20" font-weight="700" fill="#FFFFFF">Engajamento</text>
    <text x="588" y="783" font-size="20" font-weight="700" fill="#FFFFFF">e Conversão</text>
    <text x="588" y="811" font-size="15" font-weight="500" fill="#F0B9A6">Pilares 2 e 3</text>
    <!-- Retencao -->
    <rect x="702" y="686" width="196" height="150" rx="18" fill="#FFFFFF" fill-opacity="0.05" stroke="#FFFFFF" stroke-opacity="0.15" stroke-width="1.3"/>
    <circle cx="800" cy="720" r="5" fill="#FB2E0A"/>
    <text x="800" y="762" font-size="21" font-weight="700" fill="#FFFFFF">Retenção</text>
    <text x="800" y="792" font-size="15" font-weight="500" fill="#F0B9A6">Pilar LTV</text>
    <!-- Inteligencia e Performance -->
    <rect x="914" y="686" width="196" height="150" rx="18" fill="#FFFFFF" fill-opacity="0.05" stroke="#FFFFFF" stroke-opacity="0.15" stroke-width="1.3"/>
    <circle cx="1012" cy="720" r="5" fill="#E50914"/>
    <text x="1012" y="758" font-size="20" font-weight="700" fill="#FFFFFF">Inteligência</text>
    <text x="1012" y="783" font-size="20" font-weight="700" fill="#FFFFFF">e Performance</text>
    <text x="1012" y="811" font-size="15" font-weight="500" fill="#F0B9A6">ROI e flywheel</text>
    <!-- Produto Destrava -->
    <rect x="1126" y="686" width="196" height="150" rx="18" fill="#FFFFFF" fill-opacity="0.05" stroke="#FFFFFF" stroke-opacity="0.15" stroke-width="1.3"/>
    <circle cx="1224" cy="720" r="5" fill="#C41E08"/>
    <text x="1224" y="758" font-size="20" font-weight="700" fill="#FFFFFF">Produto</text>
    <text x="1224" y="783" font-size="20" font-weight="700" fill="#FFFFFF">Destrava</text>
    <text x="1224" y="811" font-size="15" font-weight="500" fill="#F0B9A6">DR-X a DR-E</text>
    <!-- Brand e Design (dourado, dominio Baziotti) -->
    <rect x="1338" y="686" width="196" height="150" rx="18" fill="#FFFFFF" fill-opacity="0.05" stroke="#FBAD56" stroke-opacity="0.4" stroke-width="1.3"/>
    <circle cx="1436" cy="720" r="5" fill="#FBAD56"/>
    <text x="1436" y="758" font-size="20" font-weight="700" fill="#FFFFFF">Brand</text>
    <text x="1436" y="783" font-size="20" font-weight="700" fill="#FFFFFF">e Design</text>
    <text x="1436" y="811" font-size="15" font-weight="500" fill="#FFD79E">autoridade visual</text>
  </g>

  <!-- rodape -->
  <text x="800" y="880" text-anchor="middle" font-family="Avenir Next, Helvetica Neue, sans-serif" font-size="16" font-weight="500" letter-spacing="1" fill="#C98A7E">O comando /fdr-v4 sempre entra pelo topo. O Chief planeja e delega. Protocolo Prioridade 0.</text>
</svg>
